<?xml version="1.0" standalone="no"?>
<!DOCTYPE svg PUBLIC "-//W3C//DTD SVG 1.1//EN" "http://www.w3.org/Graphics/SVG/1.1/DTD/svg11.dtd" >
<svg xmlns="http://www.w3.org/2000/svg" xmlns:xlink="http://www.w3.org/1999/xlink" version="1.1">
<metadata>
Created by FontForge 20170731 at Mon Jun 25 11:34:37 2018
 By Andrew Huang
Copyright (c) 2018, Andrew Huang
</metadata>
<defs>
<font id="Untitled1" horiz-adv-x="1800" >
  <font-face 
    font-family="Untitled1"
    font-weight="400"
    font-stretch="normal"
    units-per-em="1000"
    panose-1="2 0 5 9 0 0 0 0 0 0"
    ascent="800"
    descent="-200"
    bbox="-31 -286 1939 1537.17"
    underline-thickness="50"
    underline-position="-150"
    unicode-range="U+4E4B-FF0C"
  />
<missing-glyph 
d="M33 0v666h265v-666h-265zM66 33h199v600h-199v-600z" />
    <glyph glyph-name=".notdef" 
d="M33 0v666h265v-666h-265zM66 33h199v600h-199v-600z" />
    <glyph glyph-name=".null" horiz-adv-x="0" 
 />
    <glyph glyph-name="nonmarkingreturn" 
 />
    <glyph glyph-name="uni4E88" unicode="&#x4e88;" 
d="M1045 1375q145 -68 145 -152q0 -69 -281 -291q13 -74 25 -74q313 53 436 107q196 -82 196 -166q0 -108 -410 -214v17q197 141 197 230l-77 -3q-367 -23 -367 -54l59 -31q-8 -86 -8 -100q0 -81 8 -421q0 -248 -77 -251q-35 -42 -102 -45h-17q-70 -3 -171 208q17 9 26 10
q105 -30 136 -28l17 25v620l-461 -108q-64 31 -85 30v17q420 98 546 119v16l-8 17l-17 -9l-9 -1q17 21 17 34q-10 70 -102 195v8q67 2 196 -84q137 191 137 228h-9q-118 -4 -392 -80q-112 45 -128 45v8q0 16 256 50q324 76 324 128z" />
    <glyph glyph-name="uni4E8B" unicode="&#x4e8b;" 
d="M721 1501q106 4 228 -78l-10 -20v-124q367 68 367 119q189 -60 189 -90l-20 -39q-138 5 -179 3q-18 0 -178 -16v-9q109 -41 109 -83q-45 -181 -70 -242v-10l10 1q3 19 20 20l30 1q35 1 139 -130l-50 -117l10 1l208 36q109 -25 109 -54q-20 -87 -49 -88q-120 15 -189 13
l-109 -4v-183q0 -34 -158 -82q-60 20 -60 65l-129 -24v-173q0 -374 -69 -377q-50 -21 -69 -22q-76 -2 -119 131q69 15 69 69v327q-44 -2 -129 -43q-109 53 -139 52v19l10 1q37 1 258 38v144q-241 -38 -486 -95l-99 35v10q0 22 585 117v134l-228 -37q-50 27 -69 27v19
q64 2 297 39v106q-122 -62 -139 -63l-30 -1q-54 -2 -79 45q20 69 20 107q0 64 -40 113v20q134 -5 199 -3l19 1l50 11v77q-319 -98 -337 -99q-167 33 -189 32v19l10 1q134 14 516 95v182q0 34 -40 66q10 1 10 10zM929 1221v-58q96 4 139 82h-10q-24 -1 -129 -24zM929 1086
l10 -114q18 10 90 22v125q-100 -9 -100 -33zM662 1048v-58q0 -41 20 -76q69 16 69 32v124q-17 -10 -89 -22zM939 933v-105q169 38 169 54q-23 -1 -149 52zM939 760v-134q159 6 159 63v87l-10 -1q-125 -14 -149 -15zM939 559v-125q139 5 139 91l10 49l-99 -4z" />
    <glyph glyph-name="uni4EAE" unicode="&#x4eae;" 
d="M535 1450l95 3q228 9 228 -184q366 66 445 108q108 -42 114 -70v-9l-28 -38q-12 0 -95 6q-394 -14 -1006 -174q-117 32 -142 31v19q202 25 598 104q-183 177 -256 175v18zM971 1218q48 -17 143 -87q-35 -74 -57 -287l-48 -38q-38 -2 -113 69q-154 -6 -257 -83
q-95 22 -95 52v9q0 11 19 102v64q0 34 -38 81v19l67 2q48 2 114 -14q150 5 256 110zM677 1051v-9q0 -86 38 -146q63 2 199 35q-9 145 -9 174h-9zM1322 845q175 6 228 -222q-42 -56 -123 -59q-247 23 -247 55v9q105 23 180 99v9l-66 7l-180 -7q-186 -7 -712 -127l-66 16v-9
q19 -81 19 -146q0 -157 -114 -161h-10q-47 22 -66 89q85 176 85 279v37q3 18 19 19q22 1 48 -81q944 190 1005 193zM952 657q149 -52 181 -95v-18q-48 -114 -48 -287q0 -239 95 -235q0 -25 142 -32q209 8 209 192v27l19 1q56 -145 104 -143v-28q-40 -157 -161 -162
q-114 -13 -171 -15q-398 -15 -398 334q0 56 19 313l-47 -11l-86 -3q-24 -1 -85 -21l9 -18q0 -462 -351 -619v9q209 301 209 586v92l-19 64q9 0 9 9q30 -5 124 -60q103 4 246 120z" />
    <glyph glyph-name="uni4ED6" unicode="&#x4ed6;" 
d="M355 1318q244 -44 244 -164q0 -96 -103 -213q0 -9 9 -27q-19 -91 -19 -182q31 1 188 43v73q-19 117 -19 144q159 6 169 -84v-82l113 40q-9 182 -9 273v45q0 12 66 57h9q57 3 141 -104q-19 -53 -19 -200q168 69 225 99q68 -25 132 -95q-85 -120 -85 -440q-59 -75 -112 -77
l-29 -1q-75 98 -112 132v10l75 20q19 231 19 301q-20 0 -132 -32q10 -213 10 -318q-4 -17 -85 -76h-9q-63 -2 -113 151q28 6 28 73v100q-28 -1 -113 -31q0 -18 -9 -200q0 -179 122 -205q108 -33 254 -27q289 10 347 131q19 80 19 128h9q85 -146 160 -167q0 -181 -347 -222
q-158 -15 -245 -18q-342 -12 -441 157q-28 90 -28 172q9 160 9 191q-38 -20 -56 -20q-91 42 -132 41q-9 -18 -9 -28q0 -369 37 -663q-65 -38 -93 -39q-62 -3 -141 85q37 2 37 156v255q0 78 -9 245h-19q-107 -90 -169 -134v9q244 350 244 637v27l-28 35q3 18 19 19z" />
    <glyph glyph-name="uni4F60" unicode="&#x4f60;" 
d="M845 1339q154 -38 200 -119v-39q0 -79 -90 -178l10 1q451 44 451 113q0 29 20 30q76 3 150 -82v-19q0 -158 -390 -412q10 -194 10 -291v-145q0 -233 -101 -236l-70 -3q-70 45 -70 104q60 2 60 70v708q0 13 -50 47q0 -14 -30 -30q-39 -2 -90 45q-94 -75 -240 -174h-10v10
q250 324 250 561q-14 0 -30 28zM354 1234q241 -36 241 -156q0 -87 -100 -198q0 -10 10 -9l-31 -321l10 -58q0 -217 31 -474q-37 -31 -71 -32l-20 -1q-32 -1 -130 54v29q30 1 30 50v562h-10l-160 -123h-10v10q230 312 230 590q0 33 -30 67q10 0 10 10zM995 888q124 5 211 -50
q-10 -97 -10 -146v-29q142 163 180 327v9q-381 -66 -381 -111zM795 581h10q71 3 140 -82v-49q0 -121 -360 -294q220 246 220 396q-10 19 -10 29zM1356 582q300 -82 300 -271q-20 -136 -50 -137q-114 -4 -160 246l-90 142v20z" />
    <glyph glyph-name="uni5011" unicode="&#x5011;" 
d="M1483 1352q116 -14 199 -39q-28 -120 -38 -277l19 -927q-40 -157 -85 -159h-9q-74 -3 -181 195q-9 0 -9 9v19l57 2q49 1 57 29v570q0 110 -29 109q-16 8 -47 7h-10q-102 -4 -161 -61q-104 24 -104 51q19 168 19 286v37q0 33 -38 72v9h9q72 3 199 -29l38 1q58 2 114 96z
M335 1292q247 -41 247 -166q0 -72 -104 -215l9 -18q-19 -118 -19 -221v-211q0 -184 28 -449q-45 -29 -104 -31q-96 36 -133 77q38 17 38 66v588h-9l-162 -126h-9v9q237 343 237 615v18l-38 54zM971 1251q59 -5 114 -42q-19 -34 -19 -74v-166q0 -156 -114 -160l-19 -1
q-31 27 -48 26q-94 -3 -94 -49q0 -123 -10 -202q10 -294 38 -541l-28 -19q-36 -2 -162 67q19 42 19 120v992q3 19 19 19l10 1q35 1 123 -33q33 2 171 62zM1293 1189v-101q38 1 143 42q31 -17 47 -17v101q-62 -2 -190 -25zM819 1153l-19 -138l133 32q3 -18 19 -17v110
q0 18 -19 18zM1303 1033v-9q0 -47 19 -110q19 1 152 43q0 -9 9 -9v110q-10 0 -28 -10l-38 8q-25 -1 -114 -23zM942 1011q0 -28 -19 -28l-123 -5v-9q-9 -115 -9 -129q161 25 161 162v9h-10z" />
    <glyph glyph-name="uni505A" unicode="&#x505a;" 
d="M379 813l-8 3q-9 -107 -9 -155v-190q0 -204 28 -370q-54 -38 -84 -39q-46 6 -122 77q14 1 28 28v344q0 63 9 200l-158 -133v9q205 330 205 596q-28 44 -28 62l9 1q215 -45 215 -147q-39 -163 -93 -202q9 -36 9 -63zM1033 582q19 -15 37 -29l16 -12l-12 -44
q-15 -50 -22 -100q-6 -47 -10 -69q-3 -19 -5 -40.5t-3 -62.5q-1 -33 -16.5 -53.5t-36.5 -37.5q-4 -4 -8 -7q-6 -5 -16.5 -4.5t-17.5 5.5q-39 23 -71 55q-30 38 -73 31q-9 -2 -16 -3l-21 -3l-13 -3q-5 -1 -13 -3q-9 -2 -34 -7q-11 -4 -20 -21t-17 -38q-7 -18 -14.5 -32.5
t-15.5 -20.5q-27 -15 -53 1.5t-50 42.5q-7 6 -13 12q-11 11 -23 22l-11 11q0 5 1 11q1 13 5 25q11 42 6 103.5t-19 117.5t-31 82q-2 4 -5 11.5t-5 14t-1 8.5q95 5 183 -16q12 -2 31 0q-13 6 -20.5 15.5t-11.5 18.5q-3 5 -6 9t-6 4h7q1 0 3 -1q-3 1 -6 1h-5q-6 2 -13 3
q9 0 14.5 2t10.5 9q23 12 50.5 77t49.5 152q-88 -20 -155.5 -38t-82.5 -25l-186 60q81 6 204 38.5t243 70.5q13 73 13 129.5t-19 76.5q-2 2 -11 5.5t-21.5 8.5t-24.5 9q-11 4 -18.5 7t-6.5 3q6 2 17.5 11t25.5 20q17 14 32.5 25.5t22.5 11.5q50 1 94.5 -7t70.5 -36
q-7 -93 -35 -220q94 31 114 35q14 1 33.5 -5.5t38.5 -15.5t32 -17l13 -7q1 -5 1 -15.5t-1 -17.5v-6q0 -1 -2.5 -7.5t-5.5 -12.5t-5 -9q-5 -6 -8 -12q-5 -9 -12.5 -15t-24 -6.5t-48.5 6.5q-40 5 -157 -18q-51 -181 -114 -281q-1 0 -9 -6.5t-19 -14.5l-10 -8q34 8 70 17
q48 12 85 19q19 46 56.5 65.5t77.5 -13.5q18 -17 38 -32zM856 279v91v64v85q-41 -8 -68 -13t-49 -10q-22 -4 -48 -9t-65 -12q-3 -63 0.5 -96t13.5 -72q6 -25 14 -64q38 7 62 11t44 8q18 3 40 7t56 10zM1296 786q-52 -76 -139 -149q7 7 13 18q5 11 9 21q3 6 4 11q12 27 22 56
q35 95 59 193q23 97 22 201v7q0 19 -4 37q-4 17 -23 27q24 3 61 -5q38 -7 67 -26q29 -18 28 -49q-1 -49 -20 -128t-72 -173q86 23 152 49q40 16 77 28q37 11 56 21q18 10 28 17q6 5 12 8t13 5q10 2 25 -2q14 -4 27 -11q14 -6 23 -11l10 -5q1 -4 1 -12v-15h-1v-4q0 -1 -1 -6
l-4 -10q-2 -5 -3 -7q-4 -6 -6 -10q-4 -8 -9 -13t-17 -6q-11 -1 -34 3q-41 4 -114 -8t-112 -24q-40 -12 -62 -18q-24 -7 -37 -12q-13 -4 -25 -12zM1432 441q233 -137 507 -245q-32 -6 -102 -28t-139 -45q-70 -23 -101 -34q-140 76 -266 202q-53 -57 -133 -107
q-81 -49 -197 -82q93 45 160 109q68 65 114 137q-97 104 -164 197q-68 93 -92 143q23 -9 125 -74q84 -53 206 -125q41 102 56 171q15 70 14 76t-5 17q-3 12 -7 23q-2 7 -4 11q3 0 6 -1q9 -5 31 -27q22 -23 40 -57q18 -35 16 -76q-6 -12 -15 -43q-12 -55 -50 -142z" />
    <glyph glyph-name="uni50B3" unicode="&#x50b3;" 
d="M328 1237h10q256 -40 256 -147q0 -90 -104 -215q0 -9 9 -27q-28 -141 -28 -286v-74q0 -250 37 -522q-72 -39 -94 -40q-115 37 -133 78l19 28v634l-162 -125l-9 -1v10q228 335 228 605v37l-29 35v10zM769 800q-2 8 -18.5 49.5t-38.5 94.5t-39 93t-20 44q-4 5 4.5 8.5
t22.5 2.5q16 -1 34 -5q98 10 247 40q-1 45 -2 88q-62 -16 -141 -43l-162 76q218 42 301 58q-1 74 -2.5 120.5t-2.5 49.5q-2 5 0.5 10.5t6.5 9.5t5 4q12 9 20 20q6 8 12.5 13t15.5 4q17 -2 38.5 -14.5t42.5 -27.5q26 -19 46 -28q-14 -48 -22 -121q18 6 52 15q11 3 37 -3
t55 -15.5t50 -16.5l21 -8q2 -4 1.5 -13t-0.5 -15q-1 -4 -1 -5t-1.5 -6.5t-4 -11t-3.5 -7.5q-4 -5 -7 -10q-3 -8 -9 -13t-18 -4.5t-37 7.5q-36 14 -143 4q-3 -42 -4 -87q101 23 138 35q1 1 2 1q10 5 16 10q6 4 11 6.5t12 2.5q12 -2 35 -22t47 -45q19 -19 35 -33.5t25 -17.5
q-79 -134 -98 -218q-1 0 -7 -3.5t-15 -9.5t-20 -12q-2 -1 -5 -3q9 -4 15 -7l5 -3q2 -3 1.5 -9.5t-0.5 -11.5q-1 -2 -1 -3t-1.5 -4.5t-3 -7.5t-3.5 -6q-3 -3 -5 -7q-4 -5 -9 -9t-15.5 -4t-31.5 4q-18 3 -53 2.5t-75 -3.5q0 -49 -2 -79q62 12 105 20l-2 2l-2 2q-8 9 -17 15
q-7 5 -12 10.5t-5 12.5q109 -12 173 -51.5t19 -125.5q-49 -8 -65.5 2t-26.5 35q-2 5 -6 11q-19 38 -45 72q-15 -7 -33 -15q-59 -26 -135 -64q-6 -7 -10 -12l-3 -4q-7 1 -13 2q-89 -45 -157 -100q-18 -14 -38.5 -10t-30.5 24q-11 23 -28 48.5t-32.5 43.5t-22.5 18
q34 3 103 14t150 25q0 2 -1 4q-3 10 -6 16t-7 7q3 -1 8 -1q1 -1 3 -1q-3 1 -7 1q-3 1 -5 1q-8 4 -15 6q10 1 16.5 6.5t11.5 20.5v25q-81 -25 -120 -50q-10 -5 -17 -9l-102 35q28 2 60 7q-4 2 -8 3h5q2 -1 6 -1q-4 0 -8 1h-4q-2 2 -4.5 12t-4 22.5t-0.5 19.5zM830 900
q29 -83 60 -134q39 10 76 21q0 53 -1 137q-2 -1 -3 -1q-41 -12 -62.5 -22t-33.5 -18zM1229 1116q-70 -11 -125 -19q-1 -48 -1 -94q9 5 15 10q4 3 8 5t9 3q7 1 16.5 -3t18.5 -9.5t16 -10.5l6 -4q1 -3 0.5 -9t-0.5 -11v-3q0 -1 -1.5 -4.5t-2.5 -7.5t-2 -5q-3 -4 -4 -7
q-3 -6 -6.5 -9.5t-11.5 -4t-23 4.5q-13 3 -38 2v-68q0 -24 1 -45q10 2 18 4q34 7 51.5 13.5t26.5 11.5q4 2 7 4q-3 10 -5 20q-2 7 -3.5 11.5t-4.5 5.5q2 0 6 -1h2h-5q-2 1 -4 1q-5 2 -11 3q8 1 13.5 3.5t9.5 10.5q2 5 6 38.5t9 78.5t9 85zM962 1074q-34 -5 -53 -9
q-48 -10 -72.5 -19.5t-38.5 -17.5l-4 -2q8 -44 28 -105q72 13 142 36q-1 57 -2 117zM1669 520q1 -4 0.5 -13t-0.5 -15v-5q0 -1 -2 -6.5t-4.5 -11t-4.5 -7.5q-4 -5 -7 -11q-4 -7 -10 -12.5t-19 -6t-40 6.5q-21 6 -98 7.5t-210 -10.5q1 -40 3 -87q8 -137 3 -277t-50 -206
q-3 -4 -10 -16q-12 -21 -30 -46t-35 -31q-52 -12 -80.5 18t-49.5 78q-26 58 -70 102q17 2 40 -0.5t45 -6.5t37 -8l15 -3q31 67 36 204t-2 261q-104 -15 -231 -41q-3 -22 -5 -44q0 -24 4 -48q27 22 62 34q1 -4 -1.5 -8t-6.5 -7q-4 -5 -8 -11q-15 -27 -28 -59q-2 -8 -4 -15
q-1 -1 -1 -3q4 -21 7 -40q3 -16 9 -29q5 -11 7 -20.5t-2 -20.5q-74 50 -118 109t-32 136q-63 -14 -131 -32l-101 46q139 30 254 52q17 34 46 73q55 -16 55 -54q124 23 222 39q-7 93 -9 101q-3 5 -8 8t-12 5q-10 4 -17 10h1l8 2q13 -1 27 -2l44 -2q68 -8 127 -33
q-9 -15 -10 -65q178 27 299 60q11 3 27 -2t31.5 -13.5t26.5 -15.5z" />
    <glyph glyph-name="uni5225" unicode="&#x5225;" 
d="M775 1277q66 -28 152 -85q-59 -121 -59 -376l-58 -36l-47 -2l-82 65q-59 -2 -176 -18v-11q74 3 153 -62v-12q0 -31 -24 -69l24 1l163 51l47 2q70 -31 141 -142v-34q-50 -40 -152 -391q-69 -105 -82 -105l-36 -2q-96 -3 -163 187l11 1q88 -20 129 -18q105 283 105 434h-11
q-188 -7 -188 -63q-159 -528 -515 -541v12q267 268 351 647q12 63 12 91h-12l-117 -38l-35 -1q-70 37 -70 54q35 68 35 262q0 27 -47 89q23 12 35 12q153 3 153 -17q212 17 363 115zM400 1082q0 -113 23 -226q270 35 270 67v238q-293 -42 -293 -79zM1213 371l-5 -3
q-6 -4 -14 -10t-18 -12q-13 -10 -23 -16.5t-10 -7.5q-35 5 -50 33.5t-22 56.5q-4 12 -7 20t-7 9q3 0 8 -1q2 0 3 -1q-3 1 -7 2h-5q-8 4 -16 7q11 0 17.5 4.5t12.5 17.5q1 11 1 75t-0.5 145t-1.5 143t-3 68q-1 3 -6 13q-6 10 -12 22.5t-10.5 22t-3.5 9.5q36 0 70 -10
q15 -3 24 -5q17 -2 34 -15.5t34 -30.5q26 -26 49 -38q-28 -82 -31.5 -181t-0.5 -187q4 -81 0 -130zM1529 1255q-9 -15 -8.5 -136t5.5 -298q8 -270 7 -526.5t-31 -340.5q-1 -2 -4 -14q-9 -35 -32.5 -95t-60.5 -86q-16 -6 -26.5 8.5t-20.5 37.5q-12 34 -34 59q-34 32 -76 60.5
t-75 48.5q-26 17 -37 24q8 1 20 2q32 2 78 6t83.5 11t45.5 18q16 39 19 223t-1.5 411.5t-10.5 397.5t-8 180q-2 4 -14 16t-26.5 27t-26.5 26.5t-16 14.5q4 1 8 1q8 0 24 1t34 3q19 2 35 3.5t25 0.5q18 -2 35.5 -15t34.5 -30q28 -28 54 -39z" />
    <glyph glyph-name="uni52A9" unicode="&#x52a9;" 
d="M724 1176q55 2 155 -92q-37 -111 -37 -239v-327h9q60 20 83 21q-88 -50 -183 -166h-9l-64 15q-139 -73 -337 -241l-46 -2q-131 145 -155 144v9q0 15 137 49q18 64 18 98q0 120 9 477q-9 104 -9 150q37 8 37 19q73 -6 136 -30q203 57 256 115zM450 981q0 -51 -9 -142
q9 -15 9 -35q119 57 146 58q37 2 55 -33v-9q0 -24 -18 -54q-64 16 -110 14q-15 0 -73 -20v-115l9 -44q119 57 146 58q9 1 55 -33v406zM651 617q0 -53 -28 -54q-59 16 -82 15q-22 -1 -82 -21q0 -21 18 -149q183 42 183 68v141h-9zM1449 958q2 1 26.5 -7.5t60 -24.5
t69.5 -37.5t54 -44.5q-14 -19 -27.5 -65t-29.5 -112q-22 -91 -54.5 -199t-82.5 -210q-5 -10 -29 -29.5t-54 -41.5t-54 -38.5t-31 -19.5q-30 -8 -43 34.5t-20 102.5q-6 46 -15 84.5t-26 55.5q8 1 23 -5t34 -14q26 -13 52.5 -22t44.5 -4q11 16 36 88.5t45 179.5t16 224
q-63 -16 -150 -43q-51 -107 -125.5 -228t-168 -214t-257.5 -183q166 175 247 310.5t134 261.5q-82 -26 -145.5 -43.5t-89.5 -18.5l-64 121q70 -8 160 5t179 36q56 154 56 167q2 22 -18 36t-51 12l3 3q5 9 19 23.5t39 23.5q27 -3 56 -12t40 -17q3 -1 5 -3q23 -17 48.5 -43
t20.5 -54q-9 -13 -35 -70l-6 -14q69 24 79 29v1l3 2q4 4 11 9t15 8z" />
    <glyph glyph-name="uni5EA6" unicode="&#x5ea6;" 
d="M985 1464l10 1q13 0 84 -79v-41q0 -32 -316 -93q0 -20 -53 -22l-21 -1q-63 50 -63 110q195 7 359 125zM1301 1282q116 -46 116 -68v-20q-42 -46 -42 -53q-36 -1 -53 9q-1012 -78 -1012 -139q-92 35 -95 58q1065 157 1065 202q0 10 21 11zM1132 1102q34 1 95 -37
q-21 -38 -21 -83v-61q141 18 190 68q67 3 168 -96v-10q0 -14 -31 -32q-17 0 -137 26q-93 -14 -158 -16l-32 -1v-10q0 -91 21 -224q-46 -32 -74 -33q-46 12 -84 37h-21q-106 -4 -106 -35q0 -41 -73 -43q-53 -2 -95 47q21 34 21 62v102h-11q-18 -1 -63 -23l-179 55
q-61 -911 -211 -916q0 -10 -32 -11l-21 -1q-31 -1 -42 141q113 4 148 985l31 22q53 2 137 -77l-10 -72v-61q129 15 253 40v163q0 17 42 43q105 -9 105 -37q-21 -78 -21 -144h11q42 2 137 26v153q30 52 63 53zM921 819l11 -163h10q127 23 127 46v143q-121 -25 -148 -26z
M1216 595q137 -82 137 -189q0 -102 -189 -262q160 -119 421 -220v-20q-184 -25 -284 -72q-165 57 -285 184q-245 -172 -369 -177q222 145 295 276q-91 136 -137 281l-52 -32l-74 79l21 11l95 3l10 51l21 1q0 -15 21 -40q369 43 369 126zM890 409q110 -166 158 -198
q168 231 168 272l-10 -1q-306 -58 -316 -73z" />
    <glyph glyph-name="uni5F7C" unicode="&#x5f7c;" 
d="M1023 1305q127 -9 127 -43q-10 -83 -10 -95q10 -52 10 -76l235 47v57h10q147 -34 147 -118q0 -96 -333 -230v9q118 117 118 204q-40 -2 -177 -16v-10q10 -64 10 -104v-133l10 -18q137 37 137 90l20 1q107 -79 107 -148v-57q0 -110 -166 -281v-10q230 -172 421 -222v-19
l-284 -95q-227 182 -284 236h-10q-211 -179 -373 -185v19q91 4 304 258q-127 205 -127 271l-69 -12q-16 42 -59 64v-19q0 -400 -196 -634v19q108 633 108 1039l20 10q117 -24 117 -81q19 10 157 34v228q0 19 30 20zM484 1276q137 -69 137 -147v-38q-124 -166 -422 -252
q285 270 285 399q-10 18 -10 28q10 0 10 10zM876 958q-13 9 -49 8q-20 -131 -30 -258l98 13q0 8 10 58h20q0 -16 19 -46q98 11 98 32q-39 -2 -39 27v161q0 48 -19 47q-72 -19 -108 -42zM503 916l30 1q117 -87 117 -148q0 -42 -166 -176v-10q58 -4 58 -26q-29 -122 -29 -182
v-95q0 -78 29 -264q-19 -4 -19 -20q-84 -3 -177 70q20 174 20 285q-10 150 -10 180q-204 -74 -245 -75v9q392 280 392 413v38zM993 649q46 -100 147 -175q167 212 167 272q-314 -46 -314 -97z" />
    <glyph glyph-name="uni60C5" unicode="&#x60c5;" 
d="M389 1308l28 1q152 -24 152 -77q-57 -182 -57 -305v-46q138 5 180 -132v-36q0 -17 -66 -58h-19q-95 69 -95 97h-9v-92q0 -282 56 -650l-19 -10h-9q-84 -3 -180 76q19 83 19 120v652q0 14 -38 26q-79 -240 -95 -242q-95 22 -95 52v27q0 173 142 318q48 -31 48 -100v-36
l38 1v395q3 18 19 19zM1228 819l23 -3q23 -3 56.5 -11.5t66 -26t52.5 -45.5q-20 -43 -22.5 -140.5t1.5 -219.5q6 -147 1.5 -283t-39.5 -213q-23 -44 -52 -50q-37 -10 -55.5 10.5t-31.5 54.5q-12 29 -29.5 54.5t-49.5 36.5q9 0 19 1q27 1 53.5 8.5t34.5 32.5q23 140 13 342
t-22 324q-3 33 -5 50q-38 -6 -85 -18.5t-149 -49.5l-25 9q-25 9 -61 24q98 27 153.5 46t86.5 33q19 7 36 13q4 2 10 6t11.5 8.5t7.5 6.5h1zM1017 311q-2 -77 -3.5 -148.5t0 -118t7.5 -48.5l4 -1q-3 -8 -19 -29.5t-32 -41.5t-20 -24q-56 16 -102 94q16 50 25.5 153.5
t12.5 214.5t0 183q-1 17 -6.5 48t-12.5 63.5t-12 55.5l-5 24q1 0 26 -13t58.5 -33.5t60 -42t30.5 -38.5q3 -21 0 -42q-1 -4 -2 -32q64 16 109 31q29 9 37 10q6 1 15 -1.5t18 -7t14 -7.5l6 -3q1 -2 1 -7v-8l-1 -2q0 -1 -1 -4t-2 -5.5t-2 -3.5q-3 -3 -4 -6q-3 -4 -6 -6.5
t-10.5 -2.5t-22.5 3q-19 3 -66 -1.5t-87 -10.5q-3 -64 -6 -156q70 19 119 36q31 10 40 12q7 1 16.5 -2.5t19 -8t16.5 -8.5l6 -3q1 -3 1 -8t-1 -9v-3q0 -1 -1 -4t-2.5 -6t-2.5 -4q-3 -4 -4 -6q-3 -5 -6.5 -8t-11.5 -3.5t-24 3.5q-22 4 -73 -1t-94 -13zM1656 980q1 -2 0.5 -7
t-1.5 -11.5t-2 -11.5q-1 -6 -1 -7t-6.5 -4.5t-13.5 -7.5q-5 -3 -9.5 -5.5t-5.5 -3.5q-5 -6 -14 -5t-21 5q-29 13 -84 8q-210 -33 -370 -69q-2 -2 -4 -3q-17 -10 -29.5 -17.5t-13.5 -7.5q-22 1 -35 8q-255 -65 -317 -96l-177 64q181 26 443 85q-6 1 -11 2q10 0 16.5 2.5
t10.5 9.5q8 43 10 140q-37 -8 -63.5 -15.5t-36.5 -13.5l-87 40q97 18 188 54q1 85 0 160q-62 -15 -108.5 -27.5t-57.5 -17.5l-140 46q56 4 138.5 24.5t166.5 46.5q-1 53 -2 56q-2 1 -13 5.5t-25.5 10t-28.5 10.5q-11 5 -18.5 7.5t-7.5 3.5q14 5 33 20q11 9 22 16t19 8
q56 0 106 -9t79 -40q-3 -16 -5 -37q52 17 63 18t29.5 -6t38 -17t33.5 -18l14 -8q1 -3 1 -11t-1 -14v-4q0 -1 -2 -6t-4 -9.5t-3 -6.5q-10 -13 -31.5 -14t-66.5 9q-20 4 -75 -5q-1 -59 0 -124q21 9 30 12q12 2 32 -1.5t40.5 -10t34.5 -11.5l14 -5q2 -4 1.5 -12.5t-0.5 -14.5
q-1 -3 -1 -4t-2 -6.5t-4.5 -11t-3.5 -7.5q-11 -16 -30.5 -24t-71.5 -5q-14 0 -38 -3q1 -80 -3 -142q109 26 173 41q37 9 50 12q44 10 62 22t25 22q5 6 10 10t13 5q12 1 36 -8.5t50 -23t45 -24.5z" />
    <glyph glyph-name="uni611B" unicode="&#x611b;" 
d="M522 1235q1 0 1 -1h-1v1zM431 1046q-13 15 -33 33.5t-36.5 33t-19.5 14.5q26 3 67 26.5t75 49t39 31.5q0 -7 -5 -33q-6 -30 -11.5 -74.5t-1.5 -90.5q0 -7 -15.5 -7.5t-33 4t-25.5 13.5zM696 1265q37 -21 76 -15.5t67.5 19.5t32.5 21q0 -5 -6 -20q-10 -29 -20 -72t3 -77
q0 -4 -21 1t-50 14.5t-52.5 19.5t-29.5 16q-8 16 -6.5 39.5t5.5 40.5q2 13 1 13zM873 1291l-1 -1q1 0 1 1zM878 1138q20 7 50.5 35.5t61 64.5t51.5 64.5t23 33.5q2 3 3 9t1.5 12.5t-0.5 8.5q-1 8 0 19q0 9 -1 16q16 -5 49.5 -26t68.5 -48.5t54 -52.5t5 -38q-2 -4 -10 -5.5
t-19 -1.5q-19 0 -40 -6q-119 -38 -200.5 -60.5t-96.5 -24.5zM996 1410q-30 8 -116 -9t-246 -90l-134 50q97 30 159 49.5t98 31t54 17.5t27 9.5t16 7.5q8 4 24 11t49 20q9 3 30.5 0.5t45.5 -8t41 -9.5l18 -5q2 -3 1.5 -11t-0.5 -14l-1 -3q0 -2 -1 -6.5t-3 -9.5t-3 -7
q-4 -5 -6 -9q-3 -7 -7.5 -12t-15 -6t-30.5 3zM316 785q-37 -72 -71 -103t-70 -38q-28 31 -47 65t-19 58q22 16 48 29q25 13 47.5 28.5t37 36t14.5 51.5l-32 60q1 4 14 4t31 -2.5t33 -7t20 -10.5l14 4q141 36 393 92.5t553 104.5q9 4 21 9q12 6 22 10.5t10 5.5
q52 -10 76 -33.5t39 -50.5q9 -15 20 -30q11 -19 20 -35q18 -31 28.5 -51.5t10.5 -34.5q-14 -31 -50 -35.5t-73 16.5q-32 17 -56.5 17.5t-50.5 -4.5q-41 -12 -115 -3q33 28 76 88q13 18 27 36q-5 1 -9 1t-6.5 0.5t-4.5 0.5h-3h-3l-1 1q-1 0 0 -1v0h1h-1q0 -1 -1 -1h-3h-5
l-77 -1q-128 -4 -338 -48.5t-430 -97.5q-23 -6 -46 -11q-3 -16 -10.5 -36.5t-15 -39.5t-12.5 -31zM427 693q7 15 14 31q18 37 32.5 75t17.5 79q0 2 4 6q2 3 5 7q26 -46 37.5 -92t-0.5 -95q-14 -54 -72 -76q-5 -2 -12 -0.5t-13 4t-8 4.5q-5 14 -7.5 29.5t2.5 27.5zM1009 240
q133 -93 301 -166.5t381 -109.5q-32 -6 -118.5 -29.5t-171 -60.5t-109.5 -85q-119 52 -223.5 139.5t-192.5 188.5q-159 -126 -309.5 -193.5t-202.5 -44.5q89 25 211.5 116t232.5 201q-75 93 -133 171q-6 7 -11 14q-106 -102 -228.5 -178t-259.5 -115q94 46 206.5 146
t222.5 224q-28 34 -49 55q-14 16 -42 35q-21 14 -36 27.5t-14 23.5q6 -10 21 -7t32 10q17 6 31.5 9.5t23.5 -3.5q43 -38 88 -80q2 -1 3 -2q39 46 74 91q-53 42 -81 91t-38.5 94t-11.5 74.5t1 30.5l6 -12q12 -32 54 -94t125 -112q32 44 59 85q-75 19 -112 66t-12 143
q39 4 53 -13t20 -44q5 -16 12 -32q7 -15 17 -30q14 22 36 39q2 -3 1.5 -6t-2.5 -6q-2 -4 -3 -9q-2 -21 -1 -45q0 -6 1 -11q0 -1 1 -2q6 -8 12 -15q84 133 73 174q-4 13 15.5 17t46 -1t43.5 -20.5t8 -41.5q66 8 118 -11q62 -29 54 -96q-3 -18 -16 -21t-28 -1q-7 1 -14.5 5.5
t-12.5 10.5l-10 10q-29 31 -62 57q-3 1 -6 3q-11 10 -34 21q-64 -133 -154 -263q68 -15 159 -2q12 2 16 7.5t2 18.5q-2 11 -4 23q-4 23 -8 47q-3 22 0 47q16 -28 41 -44.5t50 -23.5q14 -5 39 -19t43.5 -32t15.5 -35q-22 -55 -82.5 -73t-128.5 -23q-14 -1 -27 -3
q-106 2 -178 28q-45 -57 -94 -111q81 -73 174 -147q45 54 66.5 94.5t11.5 58.5q-14 24 -20 38.5t-8 25.5q-1 0 -1 1q26 2 67.5 -19.5t68 -56t9.5 -72.5q-37 -72 -98 -140z" />
    <glyph glyph-name="uni61BE" unicode="&#x61be;" 
d="M1180 1332q85 -15 85 -43v-64h10l66 12q-38 78 -38 90l10 1q48 1 123 -60q19 0 67 21q73 -23 85 -52q-22 -66 -38 -66l-19 -1l-66 7q0 -49 -38 -66l-29 -1q-31 -1 -38 63l-38 -1l-47 -11q80 -346 104 -345q95 173 95 187q-9 16 -9 36l9 1q105 -55 105 -125v-19
q0 -65 -162 -189v-9q42 -100 105 -98l9 1l57 48h10v-18q0 -51 9 -129q-19 -58 -47 -66l-38 -1q-138 -5 -228 212q-69 -39 -104 -40q0 6 85 85q-47 107 -123 446q-35 -1 -351 -86v-138q275 68 275 102q45 2 104 -51v-37q0 -19 -19 -19q-70 16 -95 15q-38 -2 -218 -63
q0 21 -47 26v-74q-18 -396 -124 -399q0 -19 -66 -21l-38 90q40 2 76 159v9h-10q0 -41 -85 -58l-85 79v-211q0 -227 56 -466l-28 -20h-9q-75 -3 -171 67v19l19 28v689q0 18 -19 17h-19q-65 -223 -105 -224q-61 21 -66 43v64q0 144 133 262q33 2 47 -99v-18l29 1v358
q4 19 47 38q142 -42 142 -77q-37 -99 -56 -333q170 -33 170 -113l19 1q10 294 10 340q0 5 -10 119l19 10h19q43 2 114 -50l323 76q0 24 -19 54q40 73 66 85zM1095 860q42 2 104 -60q-19 -131 -19 -184l10 -18q-19 -4 -19 -20v-91q-1 -13 -48 -39l-19 -1q-57 54 -76 53
q-58 -2 -114 -50l-9 -1q-34 -1 -76 34l10 111v165l-19 27v19h9q133 0 133 -14q82 15 133 69zM952 745v-9q0 -202 29 -201q67 11 76 12v220q-24 -1 -105 -22zM1114 411q170 6 170 -177q-31 -20 -56 -21q-50 -2 -162 123q-85 31 -85 52q12 12 133 23zM1465 405l66 3
q142 -9 142 -124v-18q-9 -28 -56 -30l-200 149v10zM734 342q29 -116 29 -173q-29 -157 -124 -161q-28 8 -28 54q104 254 104 280h19zM801 289q272 -201 635 -188l10 1q-19 128 -29 146l19 9q3 -25 143 -77v-9q-38 -185 -152 -189q-426 -16 -626 307z" />
    <glyph glyph-name="uni6210" unicode="&#x6210;" 
d="M1044 1347q291 -73 291 -166q10 0 10 -10q-21 -64 -43 -64l-10 -1q-112 -4 -151 120l-118 110zM905 1321q139 -16 139 -47v-73q0 -10 -10 -10l53 -217q100 24 226 71h22q79 3 86 -28v-41q0 -32 -43 -33q-119 -4 -269 -31q64 -165 129 -359q86 73 86 138q-11 21 -11 31
l22 11q107 -88 107 -163v-62q-47 -77 -118 -150q52 -120 118 -162l54 2q97 21 97 76l10 1q22 -2 22 -21v-10q0 -83 11 -197q-30 -70 -65 -86l-140 -5q-133 -5 -290 281q-263 -145 -387 -181q222 187 333 314q-172 497 -172 514q-397 -48 -397 -129v-135q96 4 290 94
q38 1 129 -68q-43 -71 -86 -409q-98 -97 -194 -101q-64 112 -139 141v21l150 5q39 1 54 314q-215 -28 -215 -70q0 -562 -172 -568l-22 -1q-76 139 -150 161v21q150 5 150 172q22 170 22 240q-11 229 -11 343l43 22q135 -68 151 -67q240 40 376 76q-43 162 -97 246
q31 66 108 129z" />
    <glyph glyph-name="uni6211" unicode="&#x6211;" 
d="M1540 325q-4 -71 27.5 -141.5t70.5 -134.5q34 -57 54.5 -103.5t6.5 -77.5q-80 -12 -182.5 18.5t-158.5 71.5q-156 124 -255 328q-109 -105 -200 -165.5t-125 -60.5q52 40 129 129t150 194q-92 222 -139 439q-91 -26 -212 -68q2 -47 4 -101q1 -36 3 -73q90 56 149 94
l59 37q-3 -12 -107 -97q-45 -37 -100 -83q5 -141 1 -260t-29 -165q-1 -2 -4 -10q-8 -26 -31 -69t-59 -63q-16 -4 -26 6.5t-20 27.5q-12 24 -34 43q-32 23 -73 43.5t-74 35.5q-25 12 -35 17q7 1 19 1q31 2 76 5t81.5 8t43.5 13q12 18 16.5 83t3.5 157q-106 -97 -185 -193
q-16 -20 -47.5 -36.5t-61.5 -22t-41 8.5q-14 23 -21.5 62t-11.5 76q-4 28 -7 45t-8 15q19 7 44 -1q18 -6 41.5 -7t53.5 13q112 54 243 131q-2 109 -7 208q-134 -48 -304 -115l-171 49q285 96 471 158q-6 113 -8 121q-3 3 -19 15.5t-34 25.5q-99 -54 -175.5 -88t-93.5 -39
q33 16 81.5 64t97.5 105.5t83.5 101.5t38.5 52q2 4 3.5 12.5t2.5 17t1 11.5q-2 9 -2 25q1 12 0 20q24 -1 74.5 -11.5t101.5 -28.5t78 -39.5t4 -42.5q-4 -6 -13.5 -9t-24.5 -5q-17 -3 -36.5 -8.5t-36.5 -18.5q-70 -54 -152 -101q47 -3 101.5 -14.5t82.5 -38.5q-9 -9 -9 -78
l195 65q-45 235 -56 342q-6 41 -7 47q-10 28 -24 56q-28 48 -78 79q7 10 50.5 5t99 -19.5t97.5 -34.5t45 -39q-50 -78 -16 -259q1 -12 27 -129q99 36 195 76q15 5 45.5 -1.5t64 -18t57.5 -20.5l24 -9q2 -5 2 -16t-1 -19q-1 -4 -1 -5q0 -2 -2 -9t-5 -14t-5 -10
q-16 -19 -61 -24t-106 2q-36 7 -184 -27q36 -142 97 -310l1 1q1 2 2 5q1 2 2 5q26 54 46 108q5 15 12 37.5t7 34.5q0 8 -3 14.5t-7 12.5q-5 7 -9 14.5t-3 18.5q7 -1 17 -3q38 -7 86 -22t71.5 -47.5t-13.5 -88.5q-59 -124 -149 -232q47 -101 105 -184.5t128 -135.5
q19 -12 31 20t22 85q14 70 37 130zM1326 1139v0v0v0zM1225 1082q-12 22 -23 45q-23 48 -50.5 91.5t-71.5 80.5q-3 2 8 5t29 6t36 5t31 3t13 0q1 -2 14 -9q20 -11 50 -32t52 -49q3 0 6 -13t4.5 -30t2.5 -30.5t0 -15.5q-2 -6 -57 -40q0 -1 -3.5 -2t-7.5 -3q-7 -2 -14.5 -5
t-13.5 -5z" />
    <glyph glyph-name="uni662F" unicode="&#x662f;" 
d="M941 151q96 -44 226.5 -81t299.5 -60t384 -23q-38 -17 -137 -71t-197.5 -108.5t-132.5 -76.5q-128 21 -267 105.5t-263 190.5t-205.5 190.5t-94.5 105.5q0 2 -1 4q-112 -99 -224 -176.5t-166 -87.5q21 18 110 103.5t187 186.5q-60 6 -156 7q30 8 64 23q33 15 71 26t81 8
q82 89 98 127q0 3 -4 11.5t-9 18.5q-3 7 -5.5 12t-2.5 6q1 2 16 1.5t36 -2.5q23 -3 41 -4t19 2q11 0 22 -9t13 -24t-14 -34q-36 -63 -127 -149q6 -4 11 -9q36 -32 93 -76t142 -91q2 2 5 6q6 33 9 106t4 155t1 140.5t-2 62.5q-2 2 -17 8q-171 -45 -399 -137l-133 42
q298 94 505 148q17 14 29 15h23q55 15 101 28q-14 30 -23 58q-6 17 -10.5 27.5t-8.5 10.5h7q3 0 6 -1q-4 1 -9 1h-5l-18 6q14 1 21 9q-43 -12 -62.5 -16.5t-25.5 -5.5q-4 -1 -7 -1.5t-7.5 -2t-12.5 -3.5q-11 -4 -20 -7v-1q1 -2 1 -3q-9 0 -23.5 -11t-27.5 -24.5t-20 -21.5
l-4 -5q-45 0 -65 13.5t-28 26.5q-4 6 -8 10t-9 4h-1h9h7h-12q-3 1 -5 1q-3 1 -2 16t5 33t9 29q1 9 6 57t9 110l-15 10q7 1 15 2q3 54 2 100.5t-9 66.5q-35 82 -46 92q3 0 6 1q1 0 2 1h30q24 0 47 -1q26 0 40.5 -3t28.5 -8q13 -4 34 -9h-1v-1q39 9 56 13q13 3 21 4.5t17 4.5
t26 8q29 9 50 20q-1 11 -1 12q-2 5 1 11t7 10.5t6 4.5q13 10 23 22q7 8 14.5 14t17.5 6q19 -1 41 -18.5t44 -38.5q35 -36 62 -48q-33 -101 -42 -202t-10 -187q0 -67 -5 -115q0 -1 -6.5 -14.5t-15.5 -34.5q80 27 99 50q8 7 33.5 4t56.5 -11t54 -15l23 -7q1 -3 1 -11t-1 -14
v-4q0 -1 -1.5 -6t-3.5 -10t-3 -7q-4 -5 -6 -9q-4 -7 -8.5 -12t-15.5 -6.5t-33 1.5q-34 9 -232 -24l-2 -3q-5 0 -9 1q-15 -4 -32 -7q10 -7 17 -16q-10 -63 -9 -162q-1 -29 -1 -60q47 13 94 36.5t80 43.5q31 19 40 21q8 1 35 -9.5t59 -25t56 -26.5l24 -12q1 -3 1 -11t-1 -14
v-4q0 -1 -1 -6t-2.5 -9.5t-2.5 -6.5q-3 -5 -5 -9q-2 -7 -6 -11.5t-12 -5t-24 4.5q-16 6 -31.5 9.5t-41.5 4.5t-72 0q-49 -2 -90.5 -12.5t-56.5 -21.5l-44 34q-1 -128 -34 -268q-1 -1 -9.5 -7.5t-19.5 -15.5q-2 -1 -3 -3zM759 1257q-4 -61 1 -141q59 17 94 29q21 8 32 15.5
t16 13.5q4 4 7.5 6.5t7.5 3.5q6 1 14.5 -4t16.5 -12q-1 83 -2 146q-41 -11 -63 -16.5t-32 -8.5l-13 -3q-5 -1 -10.5 -3t-15.5 -5q-33 -11 -53 -21zM948 949q1 54 1 136q-6 -5 -27 2q-17 6 -63 -2t-96 -23q8 -88 21 -156q47 11 65 14q11 2 19 4t17.5 4.5t25.5 7.5q21 6 37 13
z" />
    <glyph glyph-name="uni6696" unicode="&#x6696;" 
d="M480 1073q25 -5 114 -79q-29 -117 -29 -203v-413q-41 -66 -95 -68q-19 0 -75 89q-111 -133 -247 -257h-10q-9 -1 -104 125q142 61 142 69q-4 0 -66 53q19 221 19 496v37l-10 46q24 19 38 19q105 0 105 -42q151 43 151 98q55 29 67 30zM281 882q-18 8 -29 8v-221l10 1
q34 1 76 39l28 1l38 -26v257q-60 -9 -123 -59zM376 628q-8 0 -57 7l-57 -11v-19q19 -201 19 -210q-19 -3 -19 -19h9q133 64 133 78v193zM718 1195h1v0h-1zM632 1016q-12 14 -31 32t-35 31.5t-18 13.5q18 1 45.5 15t55.5 33t47.5 34.5t22.5 19.5q0 -7 -5 -31
q-5 -29 -10.5 -71.5t-1.5 -85.5q0 -7 -14.5 -7.5t-31.5 4t-24 12.5zM859 1203q34 -20 71 -15t64.5 18.5t31.5 19.5q-1 -5 -6 -19q-10 -27 -19 -68t2 -73q1 -4 -19 1t-47.5 14t-50 18.5t-27.5 15.5q-8 14 -6.5 36.5t5.5 39.5q2 11 1 12zM1026 1227q1 0 0 -1v1zM1056 1104
q19 6 47.5 33.5t57.5 61.5t49 60.5t22 31.5q1 3 2 9t1.5 11.5t0.5 8.5q-1 7 -1 18q1 8 0 14q15 -4 46.5 -23.5t65 -46t51.5 -50t4 -35.5q-2 -5 -9.5 -6t-17.5 -2q-18 0 -38 -5q-112 -36 -189.5 -57.5t-91.5 -22.5zM1167 1361q-28 8 -109.5 -8.5t-232.5 -85.5l-128 48
q92 28 151 46.5t93 29.5t51 17l26 9q8 3 15 7q8 4 23 10.5t46 18.5q8 3 28.5 0.5t43.5 -7.5t40 -10l16 -4q2 -3 1.5 -10.5t-0.5 -12.5q-1 -3 -1 -4t-1 -5.5t-3 -9t-3 -6.5q-3 -5 -5 -9q-3 -6 -7.5 -10.5t-14.5 -6t-29 2.5zM1168 261q127 -92 266.5 -155t330.5 -99
q-15 -5 -97 -27t-162 -57.5t-104 -80.5q-69 33 -169 117.5t-184 181.5q-121 -110 -247.5 -175.5t-233.5 -55.5q76 28 186 118.5t218 204.5q-61 75 -109 139q-14 18 -26 35q-98 -136 -220.5 -238.5t-180.5 -97.5q11 3 122 135.5t208 288.5q-8 9 -16 16q-13 15 -39 33
q-20 14 -34.5 26.5t-13.5 21.5q6 -9 20 -6.5t31 9.5q15 6 29 9.5t22 -3.5q21 -18 42 -38q35 58 63 112q-146 -29 -226 -57l-91 46q156 38 349 73q31 64 48 111q7 22 -4 42t-24 35q-130 -28 -296 -78l-90 46q388 95 577 130q120 26 242 66q10 2 24 -3t28 -13.5t23 -15.5
l10 -7q1 -5 1 -14t-1 -16v-4q0 -2 -1.5 -7.5t-4 -11t-3.5 -7.5q-4 -5 -6 -10q-4 -8 -9.5 -13.5t-17 -6t-35.5 5.5q-23 8 -76.5 12t-212.5 -22q30 -22 19 -56q-23 -67 -54 -138q87 15 163 28q170 26 292 63q10 3 24 -2t28 -13.5t24 -15.5l9 -8q2 -4 1.5 -13t-0.5 -16
q-1 -3 -1 -4q0 -2 -1.5 -7.5t-3.5 -11t-4 -7.5q-3 -6 -6 -11q-4 -8 -9 -13t-17 -5.5t-36 5.5q-28 8 -144 7.5t-347 -37.5q-52 -109 -120 -214q81 -74 175 -150q93 109 131 181q1 5 -14.5 3.5t-37.5 -6t-39.5 -10.5t-17.5 -11q-10 13 -28.5 30t-34.5 31q-18 16 -21 19
q26 9 61 20q45 13 81 25.5t36 19.5q25 2 69 -17t74 -50t14 -68q-62 -120 -171 -243z" />
    <glyph glyph-name="uni6700" unicode="&#x6700;" 
d="M1585 837q2 -5 2.5 -15.5t0.5 -18.5v-5q0 -2 -1 -8t-2.5 -12.5t-2.5 -8.5q-6 -10 -31 -5.5t-57 14.5q-41 13 -75 17q-92 7 -246 -13t-325 -53q21 -12 38 -24q22 -15 38 -22q-30 -97 -29 -295.5t11 -383.5q8 -175 4 -236l-6 -4q-6 -4 -15 -10.5t-19 -13.5q-15 -10 -26 -18
t-12 -8q-38 5 -58 35t-31 58q-5 13 -9.5 21.5t-9.5 9.5q3 0 9 -1q2 -1 4 -1q-4 1 -8 1q-3 1 -6 1q-8 4 -17 7q12 1 19.5 5.5t12.5 19.5q1 10 5 95.5t9 207.5q-77 -54 -162 -122t-149 -140q-20 -22 -44 -22t-38 23q-15 26 -37.5 53.5t-42 46t-26.5 17.5q60 17 195 70
q-21 33 -29 67q-4 14 -7.5 23t-7.5 10q3 0 9 -1q2 -1 4 -1q-4 1 -8 1q-3 1 -6 1q-9 4 -17 7q12 1 19 5.5t13 19.5q1 10 1.5 66.5t-0.5 129t-2 132.5t-2 76q-113 -28 -124 -35l-108 92q51 4 216 29.5t365.5 60t357.5 63t190 38.5q31 10 47 20.5t24 18.5q5 5 10 8.5t11 4.5
q10 1 38 -13.5t61 -34t57 -35.5zM759 378q3 67 5 127q-1 -2 -1 -3q-4 -6 -19.5 -12.5t-34.5 -9.5t-34 2q-11 3 -37.5 0t-56.5 -8q-8 -69 -6 -136q16 7 33 13q13 6 26 11q17 6 25.5 11.5t13.5 9.5q3 2 6.5 4t7.5 3q7 0 29.5 -4t42.5 -8zM578 150q96 38 175 71q2 51 4 103
q-15 -6 -34 -8.5t-33 1.5q-13 4 -48 -0.5t-67 -11.5q1 -28 2 -54q2 -57 1 -101zM768 684q-2 4 -4 12q-2 6 -5 16q-120 -24 -222 -48q11 -9 20 -18q29 -29 54 -42q-16 -44 -24 -90l6 2q13 5 26 11q17 6 25.5 11.5t13.5 8.5q3 3 6.5 4.5t7.5 2.5q6 1 25.5 -2.5t39.5 -8
t28 -5.5q2 64 3 103.5t0 42.5zM1348 341q115 -51 178 -130t33 -178q-81 -29 -121.5 -5.5t-68.5 66.5q-13 17 -27 33q-34 36 -115 101q-96 -71 -173 -102t-115 -40q-18 -4 -23 -7q13 13 40 35q78 62 187 182q-54 41 -78 59q-18 12 -38 19q-15 5 -26.5 12t-13.5 20
q107 10 225 -18q65 95 87 207q-45 -2 -74.5 -9t-86.5 -27q-19 -6 -43 -14l-79 59q60 8 137 32t113 40q19 9 27 17.5t12 15.5q3 4 5.5 6.5t6.5 4.5q3 0 24.5 -8.5t49 -20t48 -21t22.5 -11.5q17 -21 20 -59.5t-16 -99.5q-57 -92 -117 -159zM455 1206q-39 82 -53 91q4 1 8 1h2
q17 0 34 -1q28 -2 55 -3q29 -2 46 -5.5t34 -9.5q15 -5 38 -11h-1q74 11 162.5 29t145.5 30q11 2 20 4q8 2 23 13t33 26q24 20 46.5 35.5t33.5 16.5q21 -3 46.5 -21t51.5 -40q41 -37 71 -49q-38 -93 -47 -156.5t-9 -116.5q0 -42 -5 -87q-1 -1 -16 -17t-34 -36
q-20 -21 -35 -37t-17 -17q-43 3 -60.5 24t-22.5 42q-4 9 -7 15t-8 7q3 0 8 -1h7q-5 0 -10 1h-6q-10 4 -21 6q16 2 25 8q-101 -17 -194.5 -36t-128.5 -27q-13 -3 -23 -6v-1q1 -1 1 -2q-11 0 -27 -10t-31.5 -22t-23.5 -20q-4 -4 -5 -4q-51 2 -74 16t-32 28q-5 6 -10 10t-10 5
h-1q4 -1 10 -1q4 0 8 -1l-14 2h-5q-4 2 -2.5 16.5t6 31.5t9.5 28q3 11 10.5 60.5t10 105.5t-11.5 86zM600 1196q-5 -58 1 -111q92 27 157 49q20 6 31 10q19 6 29 12.5t15 12.5q3 3 6 5.5t7 2.5q6 1 21.5 -4t34 -12t32.5 -12l13 -5v-11v-12v-3q0 -1 -1 -5.5t-2 -8.5t-2 -5
q-2 -5 -3 -8q-2 -6 -5 -10t-9 -4t-18 6q-12 4 -64 -4.5t-117 -23.5t-116 -30q7 -41 18 -87q73 10 161 27.5t147 29.5q17 4 28 6q24 5 44 11q1 122 -3 271q-110 -20 -209 -40.5t-136 -28.5t-60 -18z" />
    <glyph glyph-name="uni6B64" unicode="&#x6b64;" 
d="M857 1151h11q264 -31 264 -123v-41q0 -114 -22 -246q222 227 222 335q-21 -1 -21 20v10h10q211 -59 211 -155q0 -120 -432 -281v-82q0 -265 221 -257q154 5 222 242l21 1q1 -76 126 -199v-21q-91 -166 -316 -175q-443 35 -443 362v82q0 107 11 327q0 53 -85 201z
M467 1116q28 1 127 -108q-32 -147 -32 -246l11 1q112 34 158 67q126 -33 126 -67v-10q0 -21 -21 -22l-147 5l-127 -25v-265q237 70 264 71q0 -14 -401 -250q0 -10 -137 -117l-42 -1q-15 -1 -137 158l53 53v449q0 14 52 43l21 1q52 -28 106 -78q-32 -93 -32 -226v-173
q85 9 85 33v551l-11 102q56 53 84 54z" />
    <glyph glyph-name="uni6EAB" unicode="&#x6eab;" 
d="M1213 1293q120 -57 129 -82q-29 -123 -29 -213v-241q-41 -59 -100 -62q-13 0 -110 74q-143 -6 -338 -99l-20 -1q-44 -2 -109 54q19 145 19 184q-10 148 -10 259l20 11h10q73 3 170 -23q318 57 318 128zM934 1119v-19q40 1 70 -46v-58q119 -20 119 -101v-20q0 -29 -39 -30
q-16 -1 -110 102q-115 -121 -149 -140q10 -29 20 -29q41 2 288 59v251l-10 67q-164 -35 -189 -36zM237 1123l30 1q210 7 249 -165v-58q0 -19 -20 -20h-20q-62 -3 -149 139q-110 83 -110 92zM795 1066q0 -70 30 -230h10q89 222 89 254q-20 -1 -20 18q-109 -28 -109 -42z
M98 857l30 1q172 7 259 -135v-115q0 -20 -20 -20l-50 -2q-192 234 -209 233q-14 0 -30 28zM1362 749q64 2 160 -120q-40 -192 -40 -329l10 1q36 1 109 52q104 -45 120 -83v-19q0 -15 -40 -40q-65 17 -90 16l-139 -5l-40 -30l-30 -1l-40 27l-89 -3q-50 -4 -50 -21l-100 6
l-99 -4q-24 -20 -40 -20l-50 7l-278 -68q-120 54 -150 53v19l100 4q30 181 30 213q0 104 -60 181q3 19 20 20q179 -32 199 -32q518 87 518 125q0 48 69 51zM546 662v-20q-139 -403 -279 -636l-10 -1q-89 35 -89 199v10zM1183 598v-19q20 0 60 -37q-30 -63 -30 -155v-125
q70 2 70 79v270zM974 552v-19q40 -4 40 -28q-30 -85 -30 -194v-29l10 -48l50 12l30 1q-10 192 -10 289v29zM745 476q0 -53 40 -259l60 2v184l-10 115q-90 -3 -90 -42z" />
    <glyph glyph-name="uni70BA" unicode="&#x70ba;" 
d="M699 1426q158 6 158 -137v-20q0 -36 -63 -237h11q284 49 284 112l21 1q96 4 148 -66q-95 -117 -95 -177l84 44q148 -22 148 -56v-20q-113 -126 -116 -178h11q73 3 147 67q232 -60 232 -124q-74 -201 -179 -568q-88 -166 -148 -199l-52 -2q-52 23 -190 268v21
q140 -15 147 -15q122 4 201 415v72q-896 -100 -896 -196q-80 -186 -422 -526v11q188 279 358 676q21 57 21 113q-20 9 -31 9v20q90 4 116 168v10h-11q-263 -40 -327 -63q0 23 -52 29v20q421 69 421 107v21l-10 -1q-249 -9 -274 143v72q0 14 31 32q72 2 116 -129h11l42 33h11
v-71q37 -53 84 -69q42 165 74 350q-15 -1 -32 29zM773 949l-53 -165q264 63 264 91q42 107 42 124h-11q-242 -37 -242 -50zM615 535q456 101 485 120q0 17 53 155h-11q-464 -49 -464 -109zM1068 531l11 1q284 -58 284 -174v-10q0 -55 -42 -83l-42 -2q-74 -2 -158 209
q-14 -1 -53 49v10zM1005 447l21 1q53 -24 53 -80q-64 -145 -95 -146q-74 -3 -84 89q0 50 105 136zM794 409l32 1q42 -15 42 -70q-53 -155 -74 -155q-81 -3 -95 37v51q0 64 95 136zM583 381q85 -43 85 -89q-13 -48 -95 -187q-116 20 -116 88v10q0 104 126 178z" />
    <glyph glyph-name="uni7121" unicode="&#x7121;" 
d="M496 1371l29 1q228 -12 228 -65v-9q0 -57 -190 -255h19q133 5 702 164h9q133 -17 133 -50v-28q0 -12 -47 -48l-133 -4q-253 -10 -693 -99v-9q23 1 95 -33q-19 -68 -28 -259l9 1l95 12v65q0 64 -9 201l57 48q88 -12 123 -41q-29 -69 -29 -249h10l66 21l-9 46v174
q0 13 57 57q114 -19 114 -42q-10 -29 -10 -211q38 1 123 23q-9 157 -28 265l57 11q41 -6 142 -68q-19 -106 -19 -148l19 10q135 -34 190 -94v-9q0 -13 -28 -29h-10q-166 12 -171 12q-28 -180 -76 -278h10l313 48q104 -32 104 -60v-9q-14 -84 -57 -85q-174 21 -427 12
q0 -16 -151 -162l9 -64q-57 -158 -85 -159q-86 -3 -86 89q0 103 105 169l47 -8q57 106 57 122h-9q-475 -45 -532 -84q-8 0 -76 6q-268 -55 -322 -57q-107 42 -114 42v18q398 57 398 79v211q-175 40 -199 39v18q199 24 199 44v257q21 47 67 49v9l-48 7q-163 -107 -227 -109
q275 254 275 460q-24 17 -48 17v18zM1085 694q0 -73 19 -265l47 1q41 2 57 278l-57 -2zM914 670l-48 -2q19 -222 19 -266l48 2l9 65v193l-9 18zM629 613v-27q0 -139 19 -220l48 2q28 10 28 56v211q-70 -21 -95 -22zM1199 285q303 -81 303 -200v-37q-19 -83 -47 -84l-10 -1
q-107 -4 -142 160q-64 102 -114 152q10 1 10 10zM421 211l19 1q66 -43 66 -99q-61 -186 -85 -187q-105 14 -105 97v37q0 67 105 151zM715 222h19q57 -30 57 -80q-46 -177 -86 -178q-85 -3 -85 89v9q0 87 95 160z" />
    <glyph glyph-name="uni7684" unicode="&#x7684;" 
d="M443 1262h10q78 3 176 -134v-10q0 -79 -114 -174l21 1q49 1 176 116l10 1q125 -48 156 -95q-42 -108 -42 -252q228 306 228 429l-11 70l21 11q155 -88 155 -165q-41 -74 -41 -112l10 1q238 8 238 88l11 1l206 -93q-53 -653 -103 -655q-108 -224 -290 -231
q-50 -1 -155 185q-15 0 -31 29v10q138 -35 186 -33q118 4 187 277q10 63 10 141q0 130 -21 269l-21 -1q-85 -3 -196 -47h-10l-52 38h-11q-134 -170 -310 -222v-340q0 -77 -103 -94l-21 -1q-72 49 -72 97q-136 -126 -311 -271l-21 -1q-86 67 -124 126q32 28 166 56v10l-83 77
q21 95 21 151v280l-104 -33l-10 -1q124 115 124 195q86 3 166 266q-21 0 -21 20v20zM464 862q0 10 -11 9l-10 -20v-190q3 -20 21 -19q18 0 113 44q43 -13 63 -48v-10q0 -30 -42 -32l-72 8q-20 -1 -73 -23q0 -24 42 -229l-21 -1v-10l10 1q122 42 166 86v20q0 154 -10 470h-11
q-26 -1 -165 -56zM1084 754q249 -74 249 -181q-11 -101 -93 -104q-73 -2 -125 206q-12 0 -51 58q3 21 20 21z" />
    <glyph glyph-name="uni7B11" unicode="&#x7b11;" 
d="M1124 845q-1 -82 -222 -148v-9q15 1 77 -44q-19 -67 -19 -104l9 1q406 75 406 118h10q61 1 154 -88v-10q0 -28 -39 -29q-88 16 -105 15q-46 -2 -406 -53v-8q164 -294 579 -540q0 -24 -271 -56q-245 169 -328 427q-21 -1 -29 82h-9q-24 -186 -202 -381
q-170 -108 -319 -123v18q114 4 270 272q55 107 87 274q-139 -24 -261 -85l-154 42v18h10q46 2 414 72q10 93 10 140v19l-280 -47v18q473 251 473 344l127 -92zM545 1040q-78 -53 -173.5 -102.5t-199.5 -79.5q24 26 67 69q67 67 142.5 149.5t119.5 152.5q-2 21 -15 45t-28 41
q16 7 33 13q25 10 44 19t23 19q19 -6 60.5 -38.5t75 -76t27.5 -81.5q-5 -4 -9 -7q-22 -17 -52 -41q70 15 113 27q30 8 45.5 16t23.5 15q5 4 10 6.5t11 3.5q8 1 19.5 -3.5t22.5 -11.5t19 -13l8 -5q1 -3 0.5 -11t-0.5 -13v-4q0 -2 -1.5 -6.5t-3.5 -9t-3 -6.5q-3 -5 -5 -9
q-3 -7 -7 -11t-13.5 -4.5t-28.5 4.5q-16 4 -53 1t-85 -11q2 -3 5 -6q23 -65 23 -123.5t-46 -69.5q-48 7 -59.5 36t-11.5 66q0 10 -1 21q-3 38 -7 56q-44 -11 -77 -24zM1626 1242q1 -4 1 -11.5t-1 -13.5v-4q0 -1 -8 -7.5t-21.5 -14t-30 -11t-34.5 0.5q-25 6 -95 -3t-143 -27
q18 -9 31 -28q23 -64 23 -122.5t-46 -70.5q-25 10 -47 42.5t-33 63.5q5 52 -7 95l-46 23q-85 -75 -241 -156q16 26 37 58q32 45 65.5 100.5t59.5 121.5q-4 18 -16.5 37.5t-27.5 32.5q13 9 26 17q19 12 33.5 22.5t16.5 20.5q15 -2 52.5 -25t69 -56.5t30.5 -69.5
q-24 -28 -57 -60q138 24 219 46q30 9 45.5 17t23.5 14q5 4 10 6.5t11 3.5q8 1 24.5 -5t33.5 -14.5t30 -15.5z" />
    <glyph glyph-name="uni7D66" unicode="&#x7d66;" 
d="M377 1226q89 -61 149 -130l-259 -298h10q152 48 259 192q130 -59 130 -72q-27 -74 -170 -247v-10q21 1 179 -61q300 388 349 620v29l20 1q129 5 129 -102q438 -402 618 -440v-9q-3 -15 -200 -94q-59 18 -169 109q0 -14 -40 -40l-79 -3q-183 -6 -448 -74q-50 27 -70 27
q-44 -50 -80 -52q20 -59 20 -95q-13 -68 -40 -69l-19 -1q-65 -2 -100 83q-240 -66 -348 -147q-50 67 -50 114q222 221 288 328v10l-10 -1q-126 -46 -248 -201q-90 104 -90 141q97 3 249 443q0 48 20 49zM1143 1118q-23 -141 -318 -474l10 1q74 2 517 124l20 1
q-186 243 -219 349zM327 491q199 52 199 75q-16 43 -60 65q-15 -3 -139 -140zM1343 605q133 -62 149 -100q-50 -82 -50 -291v-39q-12 -87 -90 -90q-36 -1 -119 73q-209 -37 -329 -89q-59 -2 -99 44q30 135 30 242v20q0 59 -50 123l20 11h10q89 3 169 -23q309 50 309 98
q32 21 50 21zM964 428q0 -193 30 -260q269 37 269 58v251h-10q-87 -4 -289 -49zM546 384h10q199 -48 199 -195q-17 -78 -40 -79q-77 -3 -139 226q-22 0 -30 48zM456 351q50 -27 50 -75q-43 -175 -69 -176q-70 -2 -70 94q0 93 89 157zM247 334l20 1q20 1 50 -85
q-52 -204 -90 -206q-69 27 -69 94v29q0 90 89 167z" />
    <glyph glyph-name="uni80FD" unicode="&#x80fd;" 
d="M689 412q-19 5 -64.5 2t-83.5 -9q-2 -86 -3 -165t0 -130.5t6 -54.5h4q-3 -9 -17 -32t-28.5 -44.5t-18.5 -26.5q-49 21 -90 110q15 55 26 175t16 248t2 208q0 19 -3.5 43t-7.5 47t-7 39l-4 15q1 0 20.5 -8.5t45 -23.5t46 -33.5t24.5 -37.5q2 -23 -1 -46q0 -5 -2 -36
q58 15 98 29q25 9 32 10q6 0 14 -3.5t15.5 -8.5l13.5 -9l5 -3v-8v-9v-2q0 -1 -1 -4l-2 -6q-1 -3 -2 -4l-4 -6q-2 -4 -5 -7t-9.5 -3t-19.5 4q-18 5 -59.5 2.5t-76.5 -7.5q-3 -70 -6 -172q63 17 107 33q27 10 35 12q6 0 14.5 -4t17 -9.5t14.5 -10.5l5 -4q1 -3 1 -8.5t-1 -9.5
v-3q0 -1 -1 -5l-2 -6q-1 -4 -2 -5q-2 -4 -4 -7q-2 -5 -5.5 -8t-10.5 -3t-21 5zM724 987l24 -9q23 -10 66 -32.5t68.5 -47t32.5 -54.5q-18 -48 -18.5 -155.5t3.5 -242.5q7 -163 4.5 -313.5t-31.5 -234.5q-10 -25 -21 -36.5t-24 -16.5q-57 1 -73 25t-27 62q-11 32 -26 61
t-43 43q7 0 16 1q23 -1 46 6t30 35q5 147 1 374t-15 363q-3 36 -4 56q-34 -5 -74 -16.5t-127 -48.5l-22 11t-53 30q81 24 126 42.5t70 32.5q18 10 34 16q3 2 8.5 8.5t11.5 15.5t11 16q5 8 6 9zM959 1398q94 -75 108.5 -130t-40.5 -140q-35 -1 -56 12t-33 34q-9 0 -28 2
q-93 10 -274.5 -74.5t-381.5 -232.5l-147 190q95 10 207 40q37 37 68 77q8 10 16 19q52 62 94 130q20 35 37 71q1 5 1 14v20q-1 16 -1 24q19 -6 60 -32t68 -60.5t5 -64.5q-21 -36 -94 -83t-155 -89q26 7 43 11q29 8 99.5 29.5t150.5 46.5q67 21 119.5 37.5t71.5 21.5
q-17 36 -42.5 73t-55.5 59q82 5 126 -2q17 -2 34 -3zM1135 1099q-1 2 -5.5 8t-8.5 11.5t-7 8.5q1 0 -2 7.5t-7 18.5q-3 7 -5.5 13.5t-4 10.5t-0.5 4q9 0 24 1q15 2 25 2q10 -2 44.5 -18.5t57.5 -33.5q15 -12 28 -21.5t19 -11.5q-6 -10 -14.5 -45t-15 -79t-6.5 -80
q92 32 161 59q36 15 42 16t21.5 -7t32.5 -19.5t44 -40.5l27 -29q1 -3 1 -10v-13v-4q0 -2 -0.5 -6t-1.5 -8.5t-1 -6.5q-6 -7 -60 -16t-122 -18q-55 -7 -96.5 -13.5t-47.5 -11.5l-24 22q-10 6 -69 56l-31 28q8 1 18 3q1 7 2.5 13.5t3.5 10.5q0 6 -2.5 35.5t-7 66.5t-8 65.5
t-4.5 31.5zM1667 114q1 -3 5 -9.5t9 -14.5q4 -8 7.5 -13.5t3.5 -6.5t-0.5 -5t-1.5 -8t-1 -5q-4 -6 -25 -7.5t-46.5 -1t-43.5 1.5q-9 1 -12 1q-20 0 -40 2q-33 3 -66 1q-53 -2 -104 18q-56 25 -99 69q-77 65 -81 90t-2 53v30q-1 56 -4 111q-1 43 -4 85v11q1 7 0.5 14t-2.5 12
q-1 3 -5 8l-8 10q-4 5 -6 8l-3 7q-2 7 -6 16q-2 7 -4 12.5t-4 9.5l-1 4q9 -1 22 1q14 2 23 1q17 -1 65 -13t68 -41q-7 -12 -12 -70t-4 -131t12 -128q50 -12 107 -12t102 4.5t58 7.5h2q6 0 17.5 -12t38 -48.5t36.5 -49.5zM1283 1035q58 45 109 100.5t53 81.5q-1 3 -4 10
t-6 15q-4 6 -6 11t-2 7t8.5 6.5t20.5 9.5t21.5 9.5t10.5 8.5q19 0 51.5 -21t53 -64.5t-1.5 -67.5q-2 -4 -4.5 -5t-5.5 -1q-4 0 -11 -2t-19 -9q-215 -86 -268 -89zM1306 357q58 45 109 100t53 82q-1 4 -13 16.5t-25 25.5q-10 9 -15.5 15t-4.5 6q40 -7 69.5 -0.5t31.5 14.5
q19 -1 45 -27t38.5 -60t-9.5 -58q-3 -4 -5 -5t-5 -1q-4 0 -11 -2t-19 -8q-106 -59 -159 -77.5t-80 -20.5z" />
    <glyph glyph-name="uni8B93" unicode="&#x8b93;" 
d="M1047 1343h18q107 5 171 -57q85 3 233 73q56 2 125 -78q0 -13 -27 -28q-12 -1 -98 14q-207 -15 -207 -44l-9 -46q9 0 9 -9q101 4 162 70q50 2 98 -60q-23 -75 -45 -194q-14 -1 -35 -20q-10 0 -72 52q-8 0 -90 -21q1 -10 81 -71l90 13q40 -14 62 -53v-9l-9 -18l-107 5
l-63 -3v-55l-9 -18h9l63 12q61 -24 80 -61l-17 -29q-100 24 -126 23q0 -9 -9 -9l9 -64v-19q33 2 215 45q63 -20 63 -52l-27 -47q-89 6 -134 4l-45 -2v-9q32 1 63 -62q0 -45 -99 -150v-9q289 -171 421 -213v-18q-26 -1 -197 -53q-105 20 -332 234q-107 -59 -134 -60h-9
q99 88 99 113q-48 75 -63 135q9 18 9 28l18 1q93 -88 107 -88q54 98 54 149q-27 -1 -72 -30q-26 8 -26 17l-153 -33q27 -45 27 -73q-49 -66 -54 -66l9 -18q-27 -68 -36 -129l18 -119q10 1 233 101v-9q-6 -16 -331 -288h-9q-33 -1 -63 107q63 3 63 168v45l-9 46
q-174 -98 -197 -99v9q233 251 251 293v10l-144 -33q-62 19 -62 34v9h9q206 31 206 63v64q-47 -11 -54 -11q-54 19 -54 35v9q36 1 108 22v83q-113 -32 -144 -33q-29 17 -45 16v9q0 15 189 63v18l-9 45q13 1 27 29l-18 27q-67 -10 -117 -60l-27 -1l-18 9q0 -10 -9 -28
q-125 4 -161 3q-224 -9 -538 -140q-125 -5 -125 23q148 60 654 181q2 18 63 29q33 2 80 -33h9l9 65v27l-18 64l63 2l54 -7q84 18 134 78q71 -37 81 -61q-27 -48 -27 -92v-55q-36 -42 -36 -47q54 -30 54 -53q12 0 99 22v46q0 14 -72 52q18 96 18 147q0 27 -27 26v19l27 1
q-24 44 -36 44q-121 -32 -269 -83q-125 8 -125 31q367 82 367 97q0 9 -63 62v9zM537 1186h9q62 -37 62 -116v-28q0 -61 -403 -98v19q241 76 332 205v18zM1271 1132v-10l9 -91l117 23v110q-11 -1 -126 -32zM913 1054v-28q2 -45 18 -45q90 9 90 31v82h-9q-99 -13 -99 -40z
M1110 823v-27l-9 -65q86 22 126 23v92q-94 -22 -117 -23zM698 798q45 -10 45 -26q0 -24 -18 -55l-90 6q-136 -6 -304 -58q-68 16 -81 15v19h9q155 22 439 99zM1101 685l9 -91q117 9 117 41v74l-9 -1q-27 -1 -117 -23zM689 651q63 -19 63 -34q-18 -42 -36 -47q-27 -1 -63 7
q-53 -2 -358 -60q-29 17 -45 17v18q96 4 439 99zM617 520q25 -5 90 -69q-27 -127 -27 -258v-46q0 -12 -45 -47l-27 -1q-53 53 -71 52q-56 -2 -180 -71q-32 -1 -80 43q18 64 18 110v138q0 30 -27 63q17 10 27 10q65 2 116 -14q118 16 206 90zM402 384v-55q0 -156 27 -155
q143 18 143 43v201h-8q-30 -1 -162 -34z" />
    <glyph glyph-name="uni905E" unicode="&#x905e;" 
d="M1319 1472l33 2q138 5 176 -58q0 -55 -33 -65l-99 -4q-51 -2 -231 -40v-22q55 2 55 -19v-85q70 2 165 70h11q66 -35 66 -51v-21q0 -13 -187 -60q0 -11 -22 -12q-21 10 -33 10l11 -21v-53q286 58 286 85q132 -76 132 -145q-52 -34 -198 -39v11l77 88l-11 -1
q-105 -4 -352 -55v-11q99 4 99 -71q70 24 88 25q51 -19 55 -41v-21q0 -15 -33 -34l-99 7q-21 -11 -33 -11v-32q0 -58 44 -73h11q132 5 132 122l22 1q0 -25 44 -84q0 -107 -209 -114q-143 -5 -143 155q-71 -24 -89 -25q-45 20 -66 19v-75q0 -249 -242 -531v-11
q179 -68 231 -66q133 360 133 517h11q57 2 88 -71q88 22 88 56l33 1q87 -43 99 -71q-22 -152 -22 -214v-32q0 -74 99 -71q143 5 143 197v11l22 1q31 -138 77 -189q0 -139 -242 -148q-187 -6 -187 207v170q0 75 -22 74q-113 -4 -143 -186l-166 -273l11 1q358 -115 650 -105
l33 1v-32q-77 -17 -308 -139q-423 16 -958 435q-239 -197 -364 -227v11q386 391 386 462l-155 -6q-99 -67 -121 -68v10q204 227 298 374v11l-11 -1q-186 -71 -221 -72l-55 -2q-22 -1 -22 21v10q161 21 331 140v22h22q110 -10 110 -92v-42q-143 -196 -276 -266v-11l22 1
q72 3 133 79q99 -49 99 -113h11q66 333 66 706v32l-11 53l22 12l33 1l44 -30q67 2 562 201zM911 1255l-132 -5q-11 -216 -11 -299h11l342 66v11q-45 -2 -45 20v224q-110 -15 -165 -17zM405 1151l11 1q55 -25 55 -84v-42q0 -75 -386 -121v21q320 152 320 225zM944 925
q33 -30 55 -115q155 34 155 80q11 22 11 33q-14 53 -33 52q-35 -1 -188 -50zM768 930l-11 -22v-11q0 -380 -209 -626q166 -68 187 -68q143 323 143 624v32q0 75 -110 71zM482 322q0 -15 33 -31q24 1 77 184q-14 0 -110 -153z" />
    <glyph glyph-name="uni907A" unicode="&#x907a;" 
d="M1035 1498l11 1q53 2 125 -16q-10 -97 -20 -112q10 0 10 -10q47 2 199 78q0 -8 104 -77q-41 -71 -41 -123v-81q-27 -52 -84 -54q-12 -1 -84 58q-56 -13 -94 -14l10 -91q356 33 356 84q50 2 115 -56v-31q0 -14 -52 -52l-10 -1q-29 30 -147 35q-92 -13 -157 -15l-73 -3
q-49 -32 -84 -34l-125 6q-68 -2 -356 -74q-94 17 -94 37v11h10l440 67v20l10 71l-52 -2q-122 -55 -136 -55q-50 -2 -95 57q21 38 21 82v51q0 34 -31 69v10l10 1q48 2 178 -14q57 12 95 14v121q0 17 41 42zM1151 1310v-112l10 1l126 14v122q-11 -10 -136 -25zM878 1259v-101
l126 15v10l-10 101q-15 -1 -116 -25zM449 1112q53 -74 53 -130v-10q-140 -106 -388 -115v20q184 61 335 235zM1287 1011q125 -49 125 -67q-31 -108 -31 -183v-304q-42 -62 -105 -65l-94 58l-11 -1q-83 -3 -188 -27q94 -63 94 -77v-21q-87 -94 -293 -162q179 -100 482 -165
q150 -35 429 -45v-10q0 -17 -304 -143l-31 -1q-380 14 -900 423h-11q-217 -196 -335 -215l-10 -1q366 384 366 459q-13 0 -104 -13l-53 8q-1 -18 -104 -75l-11 20q206 214 293 375h-10q-170 -67 -210 -68l-73 -3q-21 -1 -21 19q225 57 335 154q4 21 21 21q105 -30 105 -97
v-20q0 -78 -262 -294l11 1q83 3 136 76q26 1 94 -78v-30q0 -32 -105 -186q144 -73 251 -113q176 193 178 209v20q-34 -1 -125 46q21 77 21 143v345q3 20 20 21l42 1q38 1 105 -26q149 5 283 91zM973 847v-81q166 37 198 38q21 -2 21 -19v-21q0 -20 -21 -21l-62 -2
q-11 0 -11 10q-27 -9 -125 -25l10 -71v-20q166 36 199 38l10 -20v-20q0 -21 -21 -21l-125 -5l-52 -12v-51l10 -70q199 20 199 47v385q-230 -32 -230 -59zM1161 378h10q273 -37 273 -162q10 -19 10 -30q-13 -92 -63 -93q-61 13 -167 206q-8 3 -63 69v10z" />
    <glyph glyph-name="uni984F" unicode="&#x984f;" 
d="M636 1371q17 1 42 -39v-41q0 -28 -105 -44l-42 -2l-106 6v21q81 3 211 99zM963 1291q82 -36 95 -47q-20 -47 -42 -53l-95 -3q-74 -3 -232 -19l42 -60v-30l-31 -42q17 1 42 -39v-41q0 -21 -21 -21l-21 -1q-85 10 -85 58q-142 -56 -232 -80v21q17 0 169 87v21
q-70 38 -84 37v21h10q45 2 137 -25l53 83q-11 0 -11 10q-408 -45 -485 -89q-48 29 -63 28v31h11q843 82 843 153zM1617 1264q135 -46 137 -77v-10l-21 -31q-90 17 -106 16q-142 -15 -211 -17l-10 -21l21 -30v-10q0 -69 -84 -105v-11l10 1q135 25 211 58q119 -46 126 -77
l-21 -133q11 -219 11 -306q-15 -286 -116 -290q137 -89 137 -168q-28 -66 -53 -74q-88 -3 -158 199q-16 -1 -42 39v20l42 2v10l-10 51l-137 -5l52 -60v-30q-125 -162 -326 -226q200 194 200 303l-21 -1l-64 -74q-39 -1 -94 68q4 21 21 22l-11 20v632l21 32l106 -27
q84 122 84 166q-98 -13 -211 -69q-116 37 -158 35v21q675 106 675 157zM910 973q85 -53 85 -68v-11q0 -20 -32 -21q-68 18 -95 17h-10l-127 -15v-10q116 -46 116 -129q0 -89 -369 -228h-10q253 223 253 326v40q-280 -30 -359 -74q-49 24 -105 37v21h10q223 8 643 115z
M1237 903v-183l232 59h11q15 1 31 -29v-10q0 -14 -31 -32h-11q-129 -5 -242 -30v-153q193 38 242 70q49 -17 53 -39v-10q0 -14 -32 -32l-42 -1q-192 -11 -221 -39q0 -46 21 -162l253 50h10q32 167 32 297v276l-11 20q-10 -11 -295 -52zM394 801l10 1q70 2 95 -109
q-108 -323 -316 -481q-121 -56 -137 -56v10q242 247 358 605q-10 20 -10 30zM742 610l21 1q105 -64 105 -129v-11q-89 -129 -358 -217v11q232 217 232 314v31zM773 295q127 -23 127 -118v-11q-65 -117 -348 -216q-69 -23 -95 -24l-10 -1q326 230 326 370z" />
    <glyph glyph-name="uni9EDE" unicode="&#x9ede;" 
d="M772 1263q23 1 141 -59q-37 -157 -37 -248q9 -115 9 -128q-27 -71 -94 -123q-76 39 -76 80l-19 -10l-76 -3v-119l10 1l170 42q76 -3 76 -24v-28q-19 -23 -19 -37l-171 -6q-66 -6 -66 -21q10 -115 10 -137l38 1q94 4 151 52h9q60 2 114 -69v-9l-10 -19q-94 6 -141 4
l-48 -2q-110 -4 -142 -51q-30 -1 -85 25l-284 -75q-97 34 -113 33v18q369 41 369 78q9 48 9 92v45q-94 -21 -160 -24l-57 17v18l217 35v138l-9 -1q-73 -15 -123 -59l-19 -1q-33 -1 -104 42q19 92 19 184v220q0 21 47 29q11 0 85 -24q350 42 350 113q10 0 29 10zM601 1120
l19 -27v-92l10 1q21 83 38 83q0 -14 37 -35h10v74l-10 18q-91 -22 -104 -22zM374 1038v-91h10q104 27 104 49v92l-19 -1q-88 -21 -95 -49zM1159 993l10 1q142 -5 142 -32q-10 -115 -10 -128l10 -64q97 3 265 83q90 -61 104 -61v-27q0 -18 -57 -39q-43 17 -123 14l-19 -1
q-70 -2 -132 -32q-17 9 -38 8l9 -91v-83q46 2 133 97l28 1q21 1 151 -96l10 1v-18q-38 -168 -66 -397q-57 -57 -76 -57q-135 96 -161 95q-89 -4 -274 -93h-10q-62 -2 -104 79q38 106 38 184v18q0 92 -57 163q3 19 19 19l189 -20v73q0 9 10 9l-10 18v357q3 19 19 19zM620 891
v-64l95 13v110l-19 -1q-76 -46 -76 -58zM384 837l19 -45l19 10l75 3l-9 45v73q-13 -1 -104 -86zM1131 443v-64q0 -96 38 -182q217 31 217 54v247q-215 -54 -255 -55zM715 364q217 -56 217 -185v-9q0 -50 -37 -74q-88 -4 -133 178q-9 0 -66 80zM649 334h9q47 -21 47 -81
q-41 -121 -66 -139q-75 -3 -75 107q47 97 85 113zM308 294q38 1 66 -80l-56 -176l-19 -1q-85 -3 -85 98v9q0 61 94 150zM478 300l10 1q22 0 47 -72q-38 -111 -57 -149q-75 7 -75 71v18q0 83 75 131z" />
    <glyph glyph-name="uniFF0C" unicode="&#xff0c;" 
d="M596 266l11 -3q67 -17 85 -79l5 -15v-40l-4 -8q-15 -97 -87 -165q-42 -40 -166 -86q45 59 57.5 81.5t27.5 59.5q-83 5 -107 88l-4 6v40q3 9 4 9q17 86 107 108l17 4h54z" />
    <glyph glyph-name="uni4E4B" unicode="&#x4e4b;" 
d="M796 1277q104 4 170 -186q0 -97 -474 -128l-38 -1v18q145 5 351 215q10 16 10 37v9l-19 27v9zM1118 1013l10 1q227 -84 227 -167q-97 -129 -417 -309q-234 -137 -446 -218v18q102 44 522 479v9q-296 -48 -598 -150q-180 39 -180 57q892 170 892 235zM84 360l9 1
q404 -77 494 -74q388 -41 787 -27q119 5 342 31v-9q-209 -228 -228 -229q-89 -12 -171 -15q-577 -21 -1119 235q0 10 -114 87z" />
    <glyph glyph-name="uni9593" unicode="&#x9593;" 
d="M750 872v0q-33 2 -50 12q-86 -66 -151 -141q-16 -18 -34.5 -16.5t-29.5 21.5q-15 30 -38 60q-15 -186 -16.5 -383t23.5 -351l-4 -3t-8 -7q-5 -3 -8 -5.5l-3 -2.5q-42 6 -74 25t-53 36q-17 15 -26 18v0q3 -1 8 -2q2 -1 5 -1q-5 1 -9 2q-3 1 -5 2q-4 4 3 23q6 17 12 49
q1 26 8.5 181t16.5 351t15.5 345t4.5 163q-3 17 10 28.5t31 8.5q66 -19 124 -73q-1 -4 -3 -10q74 28 114 53q26 15 38 18q7 1 15 0q-1 8 -1 9q-3 7 9.5 12t30.5 4q34 -4 74.5 -22t70.5 -46q10 -52 2 -94.5t-24 -83.5q-8 -24 -16 -51q39 15 62.5 24.5l23.5 9.5q-2 -9 -70 -56
q-12 -9 -26 -19q-3 -15 -5 -32q-8 0 -17 -9.5t-16.5 -22.5t-11.5 -20zM659 1177v0q-35 3 -87.5 -6.5t-83.5 -21.5q-6 -32 -12 -74q44 2 97 17.5t93 29.5q0 27 1 54q-4 0 -8 1zM453 869v0q83 28 197 71q0 13 3.5 33.5t8.5 32.5q2 10 3 50q-35 -10 -70 -25t-45 -20l-74 58
q-12 -86 -23 -200zM1407 1373v0q57 -17 119 -112q-25 -24 -32 -137.5t-3 -275t11 -328.5q7 -181 9 -319t-10 -179q-3 -7 -18.5 -24.5t-34.5 -37.5q-14 -16 -25 -28t-13 -16q-41 -10 -62.5 8t-42.5 53q-19 33 -52 70.5t-93 70.5q14 2 39 2q43 0 86.5 5t52.5 26
q1 13 1.5 142.5t0.5 313t-1 358.5q-4 -2 -12 -1.5t-24 5.5q-14 4 -47 -2t-68.5 -16.5t-57.5 -17.5q-10 -6 -28 -18q-11 -7 -20 -12.5l-9 -5.5q-32 3 -46.5 18t-20.5 29q-3 7 -6 11t-6 5v0q3 -1 10 -2v0q-3 1 -7 1q-2 1 -4 1q-7 3 -15 6q11 0 17 5t10 18q2 10 2 56.5
t-0.5 104.5t-1 102t-2.5 49q-1 5 1.5 10t6 8.5t4.5 3.5q11 8 19 17q6 7 12.5 11.5t14.5 4.5q15 -2 31 -15t32 -29l4 -4q63 12 117.5 31.5t65.5 32.5v0v0v0h1v0q5 8 8 11l1 -1q3 4 6 7t4 3q17 -6 43 -11q19 -4 33 -8zM1333 1288v0q-73 2 -114 -8.5t-55 -18.5q-15 -48 -21 -87
q58 14 102 26q35 11 43 12q8 0 18 -6t19 -12.5t11 -8.5q-1 65 -3 103zM1305 1039v0q7 0 16 -3.5t17 -9.5q0 82 -1 147q-1 -3 -1 -6l-1 -2q0 -1 -1.5 -4l-3 -6t-2.5 -4l-4 -6q-3 -4 -6.5 -7t-10.5 -2.5t-21 5.5q-13 4 -40.5 -2t-58 -15.5t-51.5 -17.5q-2 -42 0 -79v-25
q70 14 121 27q39 10 48 10zM1036 859v0q18 -2 40.5 -16.5t44.5 -31.5q35 -30 62 -40q-33 -76 -42 -153.5t-10 -144.5q0 -51 -5 -88q0 -1 -9 -15t-21 -33l-21 -35t-10 -16q-39 4 -59.5 33t-30.5 57q-6 13 -10.5 21.5t-8.5 8.5v0h7q3 0 6 -1q-5 1 -9 1q-3 0 -5 1q-9 2 -18 5
q14 0 21 5q-44 -6 -63 -8.5t-25 -2.5q-4 -1 -7.5 -1.5t-7.5 -1t-13 -2.5l-20 -4q1 0 1 -1t1 -2q-10 1 -24 -7t-27 -17.5t-21 -15.5l-4 -3q-44 2 -64 13.5t-28 22.5q-5 5 -9 8t-9 4v0q3 -1 9 -1q2 0 6 -1l-12 2h-4q-3 1 -2 12.5t5 25.5t8 22q2 7 6.5 43.5t8.5 83.5l-15 9h16
q3 42 1.5 78t-9.5 52q-34 65 -46 73q3 0 7 1h2q14 -1 29 -2q24 -1 48 -3q25 -1 40 -4t29 -8q13 -4 33 -9v0v0q38 4 55 6q14 2 22 3t17 2.5t26 4.5q29 5 49 12q0 9 -1 10q-1 3 0.5 6t4.5 6t5.5 5t3.5 2q14 7 24 15q7 7 14.5 11t17.5 3zM782 716v0q-4 -46 0 -108q59 9 95 17
q21 5 32 10t16 9q4 3 7.5 4.5t7.5 2.5q6 0 14.5 -4t16.5 -9q-1 63 -2 112q-42 -6 -64 -9.5t-32 -4.5q-8 -1 -13 -1.5t-10.5 -1.5t-15.5 -3q-32 -7 -52 -14zM971 469v0q1 41 0 104q-6 -3 -26 4q-17 5 -63 1.5t-96 -12.5q7 -68 21 -121q47 5 65 7q11 1 19 2t17 2.5t26 4.5
q21 3 37 8z" />
    <glyph glyph-name="uni5FAE" unicode="&#x5fae;" 
d="M746 1304q68 -32 119 -93q-20 -73 -20 -135v-87q100 17 100 33q0 24 10 77l-20 115q23 59 69 60q100 -44 100 -73q-26 -290 -70 -292q105 4 120 -34v-29q0 -15 -40 -40q-36 -1 -90 6q-229 -27 -478 -75q-32 18 -59 17v20q234 37 537 125q-78 65 -109 64
q-232 -67 -249 -67q-40 -50 -90 -52h-20q-39 18 -39 46q19 88 19 126q0 33 -49 105l20 10l39 1q74 3 80 -26v-67q0 -41 30 -105q70 12 70 31v106q0 109 -30 192zM298 1249q129 -63 129 -131v-19q0 -130 -368 -273l-10 -1q249 260 249 395l-10 19q10 0 10 10zM1223 1138l30 1
q89 3 140 -130q-40 -111 -60 -137h10q15 1 358 110q69 -25 90 -65v-29q0 -29 -110 -32l10 -19q0 -110 -149 -362v-20q69 -84 289 -259q0 -13 -179 -84q0 -19 -20 -20q-53 -2 -209 195v19h-10q-226 -220 -319 -224v20q160 89 259 327q-86 334 -110 334q-82 -97 -159 -151h-10
v9q169 288 169 489q-20 -1 -20 18v10zM317 902l10 1q120 -69 120 -140q0 -63 -140 -179q50 -38 50 -46q-30 -92 -30 -165v-77q0 -119 30 -289l-20 -10l-20 -1q-26 -1 -139 53q10 131 10 193v280q-187 -74 -219 -76v10q348 280 348 398l10 1l-10 19v28zM1333 795l90 -228h19
q100 229 100 283h-10q-26 -1 -199 -55zM875 749q149 -43 149 -72q-40 -81 -40 -155v-174l10 1q193 93 229 95q-205 -179 -338 -340l-10 -1q-24 -1 -90 171q80 2 80 176q0 141 10 193l-119 -4q-20 -4 -20 -20q0 -431 -279 -608h-10v9q159 264 159 633q0 17 -20 47q10 0 10 10
l110 -34q83 3 169 73z" />
    <glyph glyph-name="uni5149" unicode="&#x5149;" 
d="M795 1295q168 -45 168 -86q-42 -84 -42 -195v-72q200 202 200 283l21 1q95 -64 95 -119v-10q0 -67 -316 -195v-31q191 27 401 86q137 -46 137 -77l-21 -52q-159 5 -232 2h-11q-89 -3 -263 -20l94 -58v-10q0 -113 -21 -246q0 -270 148 -311q74 -28 137 -25q232 8 232 212
v41l21 1q58 -172 116 -169v-31q0 -184 -358 -197q-354 -13 -433 209q-31 174 -31 326q0 15 10 163v10h-10q-89 -271 -411 -535q-161 -88 -243 -91v10q386 342 506 651h-10q-214 -38 -454 -108q-71 28 -84 27v21q163 47 506 110v10q-215 -8 -232 227q7 61 32 62l31 1
q28 1 85 -150l21 1q0 30 21 31l10 1v-82q45 -70 64 -69h10q16 1 32 32v153q0 71 -11 224zM689 832v-10l32 1v10zM826 765v-20h11v21z" />
  </font>
</defs>
</svg>
